<svg width="170" height="84" viewBox="0 0 170 84" fill="none" xmlns="http://www.w3.org/2000/svg">
<g clip-path="url(#clip0)">
<path d="M4.97023 74.6157H5.93583V78.0681H5.96715C6.16548 77.7887 6.36904 77.5342 6.55694 77.3047L8.84827 74.6157H10.0487L7.33464 77.654L10.2575 81.7749H9.11446L6.65611 78.2577L5.93583 79.0459V81.7749H4.97023V74.6157Z" fill="#505050"/>
<path d="M11.505 79.3752C11.5258 80.6424 12.361 81.1613 13.3526 81.1613C14.052 81.1613 14.4853 81.0465 14.8454 80.8968L15.0229 81.5654C14.6784 81.715 14.0781 81.8946 13.2222 81.8946C11.5676 81.8946 10.5759 80.842 10.5759 79.2904C10.5759 77.7388 11.5311 76.5265 13.0969 76.5265C14.8663 76.5265 15.3204 77.9932 15.3204 78.9362C15.3204 79.1257 15.3099 79.2654 15.2891 79.3702H11.505V79.3752ZM14.3757 78.7067C14.3861 78.1229 14.1199 77.2 13.0186 77.2C12.0165 77.2 11.5937 78.0581 11.5154 78.7067H14.3757ZM13.3944 74.4111L14.4592 75.9278H13.7128L13.0656 74.93H13.0447L12.3975 75.9278H11.6615L12.7054 74.4111H13.3944Z" fill="#505050"/>
<path d="M16.5313 78.0232C16.5313 77.4794 16.5208 77.0553 16.4843 76.6312H17.3507L17.4081 77.4794H17.429C17.6952 77.0004 18.3163 76.5215 19.2088 76.5215C19.9552 76.5215 21.1087 76.9455 21.1087 78.7117V81.7699H20.1327V78.8064C20.1327 77.9783 19.8091 77.2848 18.8905 77.2848C18.2589 77.2848 17.7578 77.7188 17.5804 78.2427C17.5334 78.3624 17.5125 78.5221 17.5125 78.6767V81.7699H16.5313V78.0232Z" fill="#505050"/>
<path d="M22.6954 74.2315H23.6715V77.4494H23.6923C23.8489 77.185 24.0942 76.9405 24.3917 76.7809C24.6788 76.6213 25.0233 76.5265 25.3939 76.5265C26.1142 76.5265 27.2729 76.9505 27.2729 78.7166V81.7749H26.2968V78.8214C26.2968 77.9932 25.9732 77.2998 25.0546 77.2998C24.4231 77.2998 23.9324 77.7238 23.7445 78.2227C23.6871 78.3624 23.6767 78.4971 23.6767 78.6717V81.7749H22.7006V74.2315H22.6954Z" fill="#505050"/>
<path d="M32.3983 75.3989V76.6312H33.7972V77.3447H32.3983V80.1186C32.3983 80.7571 32.5863 81.1164 33.1291 81.1164C33.3953 81.1164 33.5518 81.0964 33.698 81.0515L33.745 81.7649C33.5571 81.8248 33.2543 81.8896 32.8785 81.8896C32.4244 81.8896 32.0539 81.74 31.8242 81.4955C31.558 81.2062 31.4484 80.7522 31.4484 80.1485V77.3447H30.6133V76.6312H31.4484V75.6733L32.3983 75.3989Z" fill="#505050"/>
<path d="M34.8985 74.2315H35.8745V77.4494H35.8954C36.052 77.185 36.2973 76.9405 36.5948 76.7809C36.8871 76.6213 37.2263 76.5265 37.5969 76.5265C38.3172 76.5265 39.4759 76.9505 39.4759 78.7166V81.7749H38.4999V78.8214C38.4999 77.9932 38.1763 77.2998 37.2576 77.2998C36.6261 77.2998 36.1355 77.7238 35.9423 78.2227C35.8849 78.3624 35.8745 78.4971 35.8745 78.6717V81.7749H34.8985V74.2315Z" fill="#505050"/>
<path d="M45.9376 79.1607C45.9376 81.0615 44.5492 81.8896 43.26 81.8896C41.8142 81.8896 40.6816 80.8719 40.6816 79.2455C40.6816 77.5342 41.8716 76.5265 43.3487 76.5265C44.8937 76.5265 45.9376 77.5991 45.9376 79.1607ZM41.6785 79.2155C41.6785 80.3431 42.3466 81.1912 43.3017 81.1912C44.236 81.1912 44.9354 80.353 44.9354 79.1956C44.9354 78.3225 44.4813 77.2299 43.3226 77.2299C42.1796 77.2299 41.6785 78.2477 41.6785 79.2155ZM43.6358 74.4111L44.7058 75.9278H43.9594L43.3017 74.93H43.2809L42.6493 75.9278H41.9134L42.9573 74.4111H43.6358Z" fill="#505050"/>
<path d="M47.1693 78.0232C47.1693 77.4794 47.1589 77.0553 47.1224 76.6312H47.9888L48.0462 77.4794H48.0671C48.3333 77.0004 48.9544 76.5215 49.8469 76.5215C50.5933 76.5215 51.7468 76.9455 51.7468 78.7117V81.7699H50.7708V78.8064C50.7708 77.9783 50.4471 77.2848 49.5285 77.2848C48.897 77.2848 48.3959 77.7188 48.2132 78.2427C48.1715 78.3624 48.1454 78.5221 48.1454 78.6767V81.7699H47.1693V78.0232Z" fill="#505050"/>
<path d="M57.9422 81.0216C57.9422 82.2089 57.6865 82.9224 57.175 83.3814C56.6426 83.8404 55.8858 84 55.2073 84C54.5601 84 53.8502 83.8503 53.417 83.5759L53.6623 82.8525C54.0172 83.077 54.5705 83.2666 55.2386 83.2666C56.2407 83.2666 56.9714 82.7677 56.9714 81.4606V80.8968H56.9506C56.6635 81.3758 56.0737 81.7549 55.2386 81.7549C53.9076 81.7549 52.9473 80.6723 52.9473 79.2455C52.9473 77.5043 54.1373 76.5265 55.3795 76.5265C56.3138 76.5265 56.8149 76.9855 57.0602 77.4095H57.081L57.1124 76.6362H57.9788C57.9475 76.9954 57.9318 77.4245 57.9318 78.0381V81.0216H57.9422ZM56.961 78.6618C56.961 78.5021 56.9506 78.3674 56.9036 78.2477C56.7261 77.6939 56.2564 77.2499 55.5361 77.2499C54.6018 77.2499 53.9337 78.0032 53.9337 79.1956C53.9337 80.2034 54.4765 81.0465 55.5204 81.0465C56.1311 81.0465 56.6739 80.6823 56.8775 80.0886C56.9349 79.929 56.9558 79.7494 56.9558 79.5897V78.6618H56.961Z" fill="#505050"/>
<path d="M63.0834 75.3989V76.6312H64.4822V77.3447H63.0834V80.1186C63.0834 80.7571 63.2713 81.1164 63.8141 81.1164C64.0803 81.1164 64.2369 81.0964 64.383 81.0515L64.43 81.7649C64.2421 81.8248 63.9394 81.8896 63.5636 81.8896C63.1095 81.8896 62.7389 81.74 62.5093 81.4955C62.2431 81.2062 62.1335 80.7522 62.1335 80.1485V77.3447H61.2983V76.6312H62.1335V75.6733L63.0834 75.3989Z" fill="#505050"/>
<path d="M66.6744 75.1894C66.6744 75.5087 66.4395 75.7631 66.0532 75.7631C65.6983 75.7631 65.4635 75.5087 65.4635 75.1894C65.4635 74.8701 65.7088 74.6057 66.0741 74.6057C66.429 74.6057 66.6744 74.8601 66.6744 75.1894ZM65.5835 76.6362H66.5595V81.7799H65.5835V76.6362Z" fill="#505050"/>
<path d="M68.188 78.0232C68.188 77.4794 68.1776 77.0553 68.141 76.6312H69.0074L69.0649 77.4794H69.0857C69.3519 77.0004 69.973 76.5215 70.8656 76.5215C71.6119 76.5215 72.7654 76.9455 72.7654 78.7117V81.7699H71.7894V78.8064C71.7894 77.9783 71.4658 77.2848 70.542 77.2848C69.9104 77.2848 69.4093 77.7188 69.2319 78.2427C69.1901 78.3624 69.164 78.5221 69.164 78.6767V81.7699H68.188V78.0232Z" fill="#505050"/>
<path d="M76.5756 80.832C76.8783 81.0016 77.3846 81.1912 77.8753 81.1912C78.5747 81.1912 78.9087 80.8619 78.9087 80.4279C78.9087 79.9838 78.6321 79.7494 77.9222 79.4949C76.9462 79.1557 76.4869 78.6568 76.4869 78.0381C76.4869 77.21 77.202 76.5314 78.345 76.5314C78.8878 76.5314 79.368 76.6711 79.6551 76.8507L79.4202 77.5342C79.2114 77.4045 78.82 77.2249 78.3189 77.2249C77.7396 77.2249 77.4316 77.5442 77.4316 77.9284C77.4316 78.3524 77.7448 78.542 78.4442 78.8114C79.368 79.1407 79.8534 79.5847 79.8534 80.353C79.8534 81.266 79.107 81.9046 77.8544 81.9046C77.2646 81.9046 76.7218 81.755 76.3408 81.5404L76.5756 80.832Z" fill="#505050"/>
<path d="M85.981 79.1607C85.981 81.0615 84.5927 81.8946 83.3035 81.8946C81.8577 81.8946 80.7251 80.8719 80.7251 79.2505C80.7251 77.5392 81.9151 76.5314 83.3922 76.5314C84.9371 76.5265 85.981 77.5991 85.981 79.1607ZM81.722 79.2155C81.722 80.3431 82.3901 81.1912 83.3452 81.1912C84.2795 81.1912 84.9789 80.353 84.9789 79.1956C84.9789 78.3225 84.5248 77.2299 83.3661 77.2299C82.2231 77.2299 81.722 78.2477 81.722 79.2155ZM83.7576 74.4111L84.7127 75.9328H83.9663L83.3974 74.935H83.3765L82.8076 75.9328H82.0978L83.0321 74.4111H83.7576ZM86.0698 73.553L84.9685 74.9449H84.3996L85.1668 73.553H86.0698Z" fill="#505050"/>
<path d="M91.3779 75.7382H91.3571L90.0992 76.3868L89.9113 75.6783L91.4928 74.8701H92.3226V81.7749H91.3779V75.7382Z" fill="#505050"/>
<path d="M98.0014 76.6312L99.0557 79.5099C99.2332 79.9888 99.3793 80.4129 99.4889 80.837H99.5202C99.6455 80.4129 99.7969 79.9888 99.9743 79.5099L101.018 76.6312H102.041L99.9274 81.7749H98.9931L96.9471 76.6312H98.0014Z" fill="#505050"/>
<path d="M103.404 79.3752C103.424 80.6424 104.259 81.1613 105.251 81.1613C105.951 81.1613 106.384 81.0465 106.744 80.8968L106.921 81.5654C106.577 81.715 105.977 81.8946 105.121 81.8946C103.466 81.8946 102.474 80.842 102.474 79.2904C102.474 77.7388 103.43 76.5265 105.001 76.5265C106.77 76.5265 107.224 77.9932 107.224 78.9362C107.224 79.1257 107.214 79.2654 107.182 79.3702H103.404V79.3752ZM106.274 78.7067C106.285 78.1229 106.018 77.2 104.917 77.2C103.915 77.2 103.492 78.0581 103.414 78.7067H106.274ZM105.324 74.4111L106.29 75.9328H105.543L104.975 74.935H104.954L104.385 75.9328H103.659L104.604 74.4111H105.324ZM106.306 73.553L107.005 74.9449H106.446L105.413 73.553H106.306Z" fill="#505050"/>
<path d="M111.749 74.2315V77.4594H111.77C112.115 76.8857 112.736 76.5265 113.602 76.5265C114.949 76.5265 115.883 77.5891 115.883 79.1407C115.883 80.9767 114.662 81.8946 113.461 81.8946C112.684 81.8946 112.063 81.6053 111.65 80.9367H111.629L111.572 81.7749H110.737C110.758 81.4257 110.779 80.9018 110.779 80.4478V74.2315H111.749ZM111.749 79.7144C111.749 79.8342 111.76 79.9489 111.796 80.0537C111.974 80.7023 112.553 81.1463 113.263 81.1463C114.296 81.1463 114.897 80.348 114.897 79.1706C114.897 78.1379 114.343 77.2598 113.284 77.2598C112.626 77.2598 112.005 77.7089 111.807 78.4073C111.775 78.5271 111.749 78.6518 111.749 78.8015V79.7144Z" fill="#505050"/>
<path d="M120.883 80.5426C120.883 80.9866 120.904 81.4257 120.962 81.7749H120.085L120.007 81.1263H119.975C119.672 81.5304 119.098 81.8946 118.331 81.8946C117.24 81.8946 116.687 81.1613 116.687 80.4179C116.687 79.1756 117.846 78.4971 119.923 78.5071V78.4023C119.923 77.9882 119.803 77.21 118.702 77.2249C118.19 77.2249 117.668 77.3646 117.292 77.6091L117.068 76.9805C117.512 76.716 118.169 76.5314 118.848 76.5314C120.492 76.5314 120.894 77.6041 120.894 78.6268V80.5426H120.883ZM119.25 74.4111L120.205 75.9328H119.458L118.89 74.935H118.869L118.3 75.9328H117.59L118.524 74.4111H119.25ZM119.944 79.1507C118.874 79.1307 117.663 79.3103 117.663 80.3081C117.663 80.9268 118.086 81.2012 118.576 81.2012C119.286 81.2012 119.746 80.7771 119.897 80.3381C119.928 80.2333 119.944 80.1235 119.944 80.0437V79.1507ZM121.567 73.553L120.466 74.9449H119.897L120.664 73.553H121.567Z" fill="#505050"/>
<path d="M123.597 75.3989V76.6312H124.996V77.3447H123.597V80.1186C123.597 80.7571 123.785 81.1164 124.328 81.1164C124.594 81.1164 124.751 81.0964 124.897 81.0515L124.944 81.7649C124.756 81.8248 124.453 81.8896 124.078 81.8896C123.624 81.8896 123.253 81.74 123.023 81.4955C122.757 81.2062 122.648 80.7522 122.648 80.1485V77.3447H121.812V76.6312H122.648V75.6733L123.597 75.3989Z" fill="#505050"/>
<path d="M133.092 80.4478C133.092 80.9068 133.113 81.4257 133.139 81.7749H132.272L132.225 80.8819H132.194C131.907 81.4556 131.26 81.8896 130.383 81.8896C129.083 81.8896 128.071 80.837 128.071 79.2754C128.06 77.5642 129.182 76.5215 130.482 76.5215C131.317 76.5215 131.86 76.8956 132.105 77.2948H132.126V75.9028H129.939V75.3191H132.126V74.2215H133.092V75.3191H133.958V75.9028H133.092V80.4478ZM132.121 78.7266C132.121 78.6069 132.11 78.4522 132.074 78.3325C131.928 77.7488 131.395 77.2598 130.665 77.2598C129.652 77.2598 129.052 78.113 129.052 79.2355C129.052 80.2782 129.595 81.1363 130.639 81.1363C131.296 81.1363 131.896 80.7122 132.074 80.0188C132.105 79.894 132.121 79.7643 132.121 79.6147V78.7266Z" fill="#505050"/>
<path d="M139.59 79.1607C139.59 81.0615 138.201 81.8896 136.912 81.8896C135.466 81.8896 134.334 80.8669 134.334 79.2455C134.334 77.5243 135.524 76.5165 137.001 76.5165C138.546 76.5165 139.59 77.5891 139.59 79.1607ZM135.336 79.2155C135.336 80.3431 136.004 81.1912 136.959 81.1912C137.894 81.1912 138.593 80.353 138.593 79.1956C138.593 78.3225 138.139 77.2199 136.98 77.2199C135.832 77.2199 135.336 78.2377 135.336 79.2155ZM137.278 74.4111L138.342 75.9328H137.596L136.949 74.935H136.928L136.286 75.9328H135.55L136.594 74.4111H137.278ZM137.502 83.1768C137.502 83.4762 137.278 83.7206 136.949 83.7206C136.625 83.7206 136.39 83.4762 136.39 83.1768C136.39 82.8775 136.646 82.623 136.959 82.623C137.267 82.623 137.502 82.8725 137.502 83.1768Z" fill="#505050"/>
<path d="M140.822 78.0232C140.822 77.4794 140.811 77.0553 140.775 76.6312H141.641L141.698 77.4794H141.719C141.986 77.0004 142.607 76.5215 143.499 76.5215C144.246 76.5215 145.399 76.9455 145.399 78.7117V81.7699H144.423V78.8064C144.423 77.9783 144.099 77.2848 143.176 77.2848C142.544 77.2848 142.043 77.7188 141.866 78.2427C141.824 78.3624 141.798 78.5221 141.798 78.6767V81.7699H140.822V78.0232Z" fill="#505050"/>
<path d="M151.595 81.0216C151.595 82.2089 151.339 82.9224 150.827 83.3814C150.295 83.8404 149.538 84 148.86 84C148.212 84 147.502 83.8503 147.069 83.5759L147.315 82.8525C147.67 83.077 148.223 83.2666 148.891 83.2666C149.893 83.2666 150.624 82.7677 150.624 81.4606V80.8968H150.603C150.311 81.3758 149.726 81.7549 148.891 81.7549C147.56 81.7549 146.6 80.6723 146.6 79.2455C146.6 77.5043 147.79 76.5265 149.032 76.5265C149.966 76.5265 150.467 76.9855 150.712 77.4095H150.733L150.765 76.6362H151.631C151.6 76.9954 151.584 77.4245 151.584 78.0381V81.0216H151.595ZM150.613 78.6618C150.613 78.5021 150.603 78.3674 150.556 78.2477C150.378 77.6939 149.909 77.2499 149.188 77.2499C148.254 77.2499 147.586 78.0032 147.586 79.1956C147.586 80.2034 148.129 81.0465 149.173 81.0465C149.783 81.0465 150.326 80.6823 150.53 80.0886C150.587 79.929 150.608 79.7494 150.608 79.5897V78.6618H150.613Z" fill="#505050"/>
<path d="M155.426 80.832C155.728 81.0016 156.235 81.1912 156.725 81.1912C157.425 81.1912 157.759 80.8619 157.759 80.4279C157.759 79.9838 157.482 79.7494 156.772 79.4949C155.796 79.1557 155.337 78.6568 155.337 78.0381C155.337 77.21 156.047 76.5314 157.195 76.5314C157.738 76.5314 158.218 76.6711 158.505 76.8507L158.27 77.5342C158.061 77.4045 157.67 77.2249 157.169 77.2249C156.59 77.2249 156.282 77.5442 156.282 77.9284C156.282 78.3524 156.595 78.542 157.294 78.8114C158.218 79.1407 158.703 79.5847 158.703 80.353C158.703 81.266 157.957 81.9046 156.704 81.9046C156.115 81.9046 155.572 81.755 155.191 81.5404L155.426 80.832Z" fill="#505050"/>
<path d="M163.74 80.5426C163.74 80.9866 163.761 81.4257 163.818 81.7749H162.942L162.863 81.1263H162.832C162.529 81.5304 161.955 81.8896 161.188 81.8896C160.097 81.8896 159.544 81.1563 159.544 80.4129C159.544 79.1706 160.697 78.4921 162.78 78.5021V78.3973C162.78 77.9833 162.66 77.205 161.558 77.2199C161.047 77.2199 160.525 77.3596 160.144 77.6041L159.92 76.9755C160.363 76.7111 161.021 76.5314 161.699 76.5314C163.343 76.5314 163.745 77.6041 163.745 78.6218V80.5426H163.74ZM162.795 79.1507C161.731 79.1307 160.515 79.3103 160.515 80.3081C160.515 80.9268 160.937 81.2012 161.428 81.2012C162.143 81.2012 162.597 80.7771 162.748 80.3381C162.78 80.2333 162.795 80.1285 162.795 80.0437V79.1507ZM161.464 76.0276C161.595 75.5586 162.096 75.4089 162.096 75.0198C162.096 74.8053 161.929 74.6705 161.72 74.6705C161.475 74.6705 161.308 74.8551 161.177 75.0447L160.802 74.8202C161 74.4361 161.334 74.1218 161.892 74.1218C162.425 74.1218 162.837 74.4411 162.837 74.92C162.837 75.5037 162.247 75.6733 161.992 76.1623L161.464 76.0276Z" fill="#505050"/>
<path d="M165.316 78.0232C165.316 77.4794 165.306 77.0553 165.269 76.6312H166.136L166.193 77.4794H166.214C166.48 77.0004 167.101 76.5215 167.994 76.5215C168.74 76.5215 169.894 76.9455 169.894 78.7117V81.7699H168.918V78.8064C168.918 77.9783 168.594 77.2848 167.676 77.2848C167.044 77.2848 166.543 77.7188 166.36 78.2427C166.319 78.3624 166.292 78.5221 166.292 78.6767V81.7699H165.316V78.0232Z" fill="#505050"/>
<path d="M105.554 25.4789C105.554 25.9578 105.382 26.357 105.037 26.6862C104.693 27.0155 104.265 27.1801 103.764 27.1801C103.263 27.1801 102.84 27.0155 102.49 26.6862C102.146 26.3619 101.973 25.9578 101.973 25.4789C101.973 25.0049 102.146 24.6058 102.49 24.2765C102.835 23.9522 103.263 23.7876 103.764 23.7876C104.265 23.7876 104.693 23.9522 105.037 24.2765C105.387 24.6008 105.554 24.9999 105.554 25.4789Z" fill="#505050"/>
<path d="M115.998 24.5809C115.998 25.3292 115.69 25.9379 115.064 26.4118C114.359 26.9257 113.336 27.1752 112.005 27.1752C110.512 27.1752 109.427 26.9008 108.764 26.352C108.017 25.7233 107.642 24.6308 107.642 23.0792V17.6811C107.642 16.1295 108.017 15.0269 108.764 14.3783C109.427 13.8295 110.512 13.5502 112.005 13.5502C113.336 13.5502 114.359 13.8196 115.064 14.3484C115.69 14.8024 115.998 15.4011 115.998 16.1494V17.9754H113.159V16.1494C113.159 15.9149 113.049 15.7004 112.835 15.5009C112.616 15.3063 112.318 15.2065 111.948 15.2065C111.154 15.2065 110.763 15.5108 110.763 16.1195V24.6158C110.763 25.2244 111.154 25.5288 111.948 25.5288C112.318 25.5288 112.616 25.434 112.835 25.2344C113.049 25.0399 113.159 24.8203 113.159 24.5859V22.7499H115.998V24.5809Z" fill="#505050"/>
<path d="M142.278 27.1752H139.418V16.3191C139.418 15.7204 139.167 15.421 138.671 15.421H136.954V27.1702H134.094V16.3191C134.094 15.7204 133.848 15.421 133.358 15.421H131.667V27.1702H128.619V13.8495H131.667V14.0291C132.079 13.7747 132.7 13.64 133.52 13.64C135.049 13.64 136.051 13.8794 136.521 14.3534L136.954 14.0241C137.372 13.7697 137.987 13.635 138.812 13.635C139.846 13.635 140.597 13.7298 141.072 13.9044C141.876 14.1987 142.278 14.8074 142.278 15.7154V27.1752Z" fill="#505050"/>
<path d="M148.04 25.4789C148.04 25.9578 147.863 26.357 147.518 26.6862C147.174 27.0155 146.751 27.1801 146.245 27.1801C145.744 27.1801 145.321 27.0155 144.976 26.6862C144.632 26.3619 144.46 25.9578 144.46 25.4789C144.46 25.0049 144.632 24.6058 144.976 24.2765C145.321 23.9522 145.744 23.7876 146.245 23.7876C146.746 23.7876 147.168 23.9522 147.518 24.2765C147.863 24.6008 148.04 24.9999 148.04 25.4789Z" fill="#505050"/>
<path d="M153.776 23.0991L157.012 13.8495H159.94L155.3 27.1752H152.252L147.612 13.8495H150.446L153.776 23.0991Z" fill="#505050"/>
<path d="M167.039 27.1752V16.3191C167.039 15.7204 166.794 15.421 166.303 15.421H164.612V27.1702H161.564V13.8495H164.612V14.0291C165.024 13.7747 165.64 13.64 166.459 13.64C167.482 13.64 168.234 13.7348 168.704 13.9094C169.502 14.2037 169.904 14.8124 169.904 15.7204V27.1752H167.039Z" fill="#505050"/>
<path d="M126.108 24.4861C126.108 25.3991 125.816 26.0626 125.221 26.4717C124.547 26.9357 123.399 27.1702 121.765 27.1702C118.707 27.1702 117.183 26.2771 117.183 24.4811V16.2742C117.183 14.4631 118.707 13.5601 121.765 13.5601C123.399 13.5601 124.547 13.7946 125.221 14.2636C125.811 14.6877 126.108 15.3612 126.108 16.2742V24.4861ZM122.961 24.7804V15.9549C122.961 15.4709 122.522 15.2265 121.645 15.2265C120.789 15.2265 120.361 15.4709 120.361 15.9549V24.7804C120.361 25.2693 120.789 25.5088 121.645 25.5088C122.528 25.5088 122.961 25.2644 122.961 24.7804Z" fill="#505050"/>
<path d="M168.98 66.7081C167.796 66.1144 165.802 65.4708 159.794 64.8023C153.75 64.1238 148.839 63.8095 144.115 63.5101C125.309 62.3078 109.093 61.5644 95.1046 61.1054C73.8928 60.412 57.8118 60.5018 45.6244 60.9508C24.731 61.7241 15.3412 63.7895 11.0874 65.0767C9.23451 65.6355 7.56951 66.4886 6.72396 67.0972C3.35743 69.5269 4.70926 70.8091 11.8077 69.6965C18.5773 68.6338 34.7732 66.8877 45.6192 66.0096C60.8129 64.7823 75.0985 64.1886 88.1575 64.019C101.19 63.8494 112.997 64.0938 123.269 64.5379C133.65 64.9869 142.455 65.6454 149.371 66.279C160.426 67.2968 163.881 67.9154 164.852 68.0352C165.697 68.1399 166.961 68.2547 167.19 68.2597C170.186 68.3644 170.557 67.5013 168.98 66.7081Z" fill="#505050"/>
<path d="M106.728 54.949C108.002 55.852 109.917 56.301 112.464 56.301C116.937 56.301 119.177 54.8592 119.177 51.9805V44.8313H112.339V47.685H115.064V51.9805C115.064 52.4595 114.813 52.9085 114.307 53.3325C113.806 53.7566 113.216 53.9711 112.538 53.9711C111.775 53.9711 111.128 53.7865 110.585 53.4074C110.043 53.0332 109.776 52.5543 109.776 51.9805V37.8965C109.776 36.8688 110.679 36.3549 112.48 36.3549C114.15 36.3549 114.98 36.8439 114.98 37.8217V41.5036H118.968V37.707C118.968 36.1055 118.206 35.0129 116.687 34.4392C115.685 34.065 114.182 33.8754 112.172 33.8754C110.001 33.8754 108.278 34.2595 107.005 35.0179C105.731 35.7812 105.095 36.8788 105.095 38.3056V51.9755C105.1 53.2078 105.643 54.1956 106.728 54.949Z" fill="#505050"/>
<path d="M36.386 0H35.1177L0.904297 27.1752H4.94414V52.3248C4.94414 53.6019 5.42432 54.6496 6.3847 55.2683C7.48078 55.9518 9.34412 56.296 11.9799 56.296C17.0793 56.296 19.6264 54.7943 19.6264 51.781V37.8017C19.6264 35.1825 17.8622 33.8754 14.3391 33.8754C13.9268 33.8754 13.3631 33.9003 12.6428 33.9502C11.9277 34.0001 11.4632 34.0251 11.2597 34.0251C10.7481 34.0251 10.2158 34.2196 9.66772 34.6138V25.1895L35.7492 4.48512L61.8307 25.1895V34.6138C61.2827 34.2196 60.7555 34.0251 60.2388 34.0251C60.0352 34.0251 59.5707 34.0001 58.8504 33.9502C58.1354 33.9003 57.5665 33.8754 57.1593 33.8754C53.6362 33.8754 51.8721 35.1825 51.8721 37.8017V51.7859C51.8721 54.7943 54.4191 56.301 59.5185 56.301C62.1543 56.301 64.0177 55.9568 65.1137 55.2733C66.0741 54.6496 66.5491 53.602 66.5491 51.8857V27.1752H70.5942L36.386 0ZM10.1323 37.8516C10.1323 37.1981 10.7638 36.8688 12.0321 36.8688C13.5719 36.8688 14.3391 37.243 14.3391 37.9963V52.2749C14.3391 53.0931 13.6032 53.5022 12.1313 53.5022C10.7951 53.5022 10.127 53.0931 10.127 52.2749V37.8516H10.1323ZM61.3766 52.2749C61.3766 53.0931 60.7085 53.5022 59.3724 53.5022C57.9005 53.5022 57.1646 53.0931 57.1646 52.2749V37.9963C57.1646 37.243 57.937 36.8688 59.4715 36.8688C60.7399 36.8688 61.3714 37.1931 61.3714 37.8516V52.2749H61.3766Z" fill="#505050"/>
<path d="M31.558 41.5934C29.5381 42.5313 27.6591 43.3894 25.9106 44.1677C24.8511 44.6517 24.1412 45.2703 23.7811 46.0137C23.4209 46.757 23.2435 48.0991 23.2435 50.0448C23.2435 52.7638 23.755 54.5898 24.7832 55.5277C25.3991 56.0466 26.3229 56.301 27.5547 56.301H37.3568V40.6704C37.3568 38.1111 36.7409 36.32 35.5091 35.2823C34.4131 34.3444 32.6541 33.8754 30.2218 33.8754C27.9984 33.8754 26.3021 34.3094 25.1381 35.1825C24.1464 35.9259 23.6506 36.9137 23.6506 38.141V41.1494H28.2698V38.141C28.2698 37.7519 28.4577 37.3976 28.8387 37.0733C29.2197 36.7491 29.7051 36.5894 30.2949 36.5894C31.6468 36.5894 32.3201 37.0933 32.3201 38.0961V40.6704C32.3253 41.0945 32.0695 41.3988 31.558 41.5934ZM29.987 53.1929C29.0475 53.1929 28.5829 52.8386 28.5829 52.1252V47.4156C28.5829 46.5076 28.9901 45.874 29.8095 45.5197L32.3305 44.4222V53.1929H29.987Z" fill="#505050"/>
<path d="M47.5712 56.296V36.6742H49.4189V33.8754H47.5712V27.8936L42.3883 30.6874V33.8754H40.1805V36.6742H42.3883V56.296H47.5712Z" fill="#505050"/>
<path d="M69.9991 51.8708C69.9991 54.8243 72.5671 56.296 77.6978 56.296C80.4328 56.296 82.3692 55.9119 83.4966 55.1436C84.4883 54.47 84.9841 53.3824 84.9841 51.8708V38.3505C84.9841 36.8439 84.4883 35.7363 83.4966 35.0328C82.3692 34.2645 80.4328 33.8804 77.6978 33.8804C72.5671 33.8804 69.9991 35.3721 69.9991 38.3555V51.8708ZM75.3386 37.8217C75.3386 37.0185 76.0589 36.6194 77.4942 36.6194C78.9661 36.6194 79.7021 37.0235 79.7021 37.8217V52.3497C79.7021 53.1529 78.9661 53.5521 77.4942 53.5521C76.0589 53.5521 75.3386 53.1529 75.3386 52.3497V37.8217Z" fill="#505050"/>
<path d="M93.2517 36.8189H96.0389C96.8479 36.8189 97.255 37.3128 97.255 38.2957V56.296H101.979V37.3128C101.979 35.8061 101.316 34.8083 100 34.3194C99.2227 34.0251 97.9857 33.8804 96.2946 33.8804C94.9428 33.8804 93.925 34.0949 93.2517 34.519V34.2246H88.2254V56.301H93.2517V36.8189Z" fill="#505050"/>
<path d="M122.162 42.6161C122.674 44.946 124.85 46.1085 128.681 46.1085H129.141C130.2 46.1085 130.732 46.6223 130.732 47.6501V52.0853C130.732 53.0831 130.064 53.582 128.733 53.582C128.149 53.582 127.674 53.4174 127.298 53.0981C126.922 52.7738 126.734 52.4196 126.734 52.0304V49.022H122.115V52.0304C122.115 53.2577 122.611 54.2605 123.603 55.0388C124.767 55.8819 126.463 56.301 128.686 56.301C131.119 56.301 132.878 55.852 133.974 54.944C135.206 53.9063 135.821 52.1102 135.821 49.5559V47.4655C135.821 46.303 135.305 45.3451 134.282 44.6018C133.118 43.7586 131.442 43.3396 129.25 43.3396H128.739C127.716 43.3396 127.199 42.8257 127.199 41.7979V38.0861C127.199 37.0883 127.846 36.5894 129.146 36.5894C129.762 36.5894 130.257 36.7541 130.633 37.0733C131.009 37.3976 131.197 37.7568 131.197 38.141V41.1494H135.816V38.141C135.816 36.9087 135.32 35.9259 134.329 35.1775C133.165 34.3045 131.468 33.8704 129.245 33.8704C126.985 33.8704 125.309 34.2595 124.213 35.0328C122.982 35.9059 122.282 37.4126 122.11 39.5479C122.079 39.8423 122.079 40.86 122.11 42.6062H122.162V42.6161Z" fill="#505050"/>
<path d="M147.111 41.5934C145.091 42.5313 143.207 43.3894 141.464 44.1677C140.404 44.6517 139.694 45.2703 139.334 46.0137C138.974 46.757 138.796 48.0991 138.796 50.0448C138.796 52.7638 139.308 54.5898 140.336 55.5277C140.952 56.0466 141.876 56.301 143.108 56.301H152.915V40.6704C152.915 38.1111 152.299 36.32 151.067 35.2823C149.971 34.3444 148.212 33.8754 145.78 33.8754C143.557 33.8754 141.86 34.3094 140.696 35.1825C139.705 35.9259 139.209 36.9137 139.209 38.141V41.1494H143.828V38.141C143.828 37.7519 144.016 37.3976 144.397 37.0733C144.778 36.7491 145.263 36.5894 145.853 36.5894C147.205 36.5894 147.878 37.0933 147.878 38.0961V40.6704C147.878 41.0945 147.623 41.3988 147.111 41.5934ZM145.54 53.1929C144.6 53.1929 144.136 52.8386 144.136 52.1252V47.4156C144.136 46.5076 144.543 45.874 145.363 45.5197L147.884 44.4222V53.1929H145.54Z" fill="#505050"/>
<path d="M167.921 34.3194C167.143 34.0251 165.906 33.8754 164.22 33.8754C162.868 33.8754 161.851 34.0899 161.177 34.514V34.2196H156.146V56.296H161.177V36.8339H163.965C164.774 36.8339 165.181 37.3278 165.181 38.3156V56.296H169.904V37.3278C169.899 35.8161 169.236 34.8133 167.921 34.3194Z" fill="#505050"/>
<path d="M35.3473 17.3119V13.5452C33.3639 13.8695 31.9808 16.3789 31.9808 16.3789V17.3069H35.3473V17.3119Z" fill="#505050"/>
<path d="M35.3421 18.0951H31.9756V21.8918H35.3421V18.0951Z" fill="#505050"/>
<path d="M36.1616 17.3119V13.5452C38.1449 13.8695 39.5281 16.3789 39.5281 16.3789V17.3069H36.1616V17.3119Z" fill="#505050"/>
<path d="M39.5281 18.0951H36.1616V21.8918H39.5281V18.0951Z" fill="#505050"/>
</g>
<defs>
<clipPath id="clip0">
<rect width="169" height="84" fill="white" transform="matrix(1 0 0 -1 0.904297 84)"/>
</clipPath>
</defs>
</svg>
